<svg width="512" height="512" xmlns="http://www.w3.org/2000/svg">

 <g>
  <title>background</title>
  <rect fill="none" id="canvas_background" height="402" width="582" y="-1" x="-1"/>
 </g>
 <g>
  <title>Layer 1</title>
  <path fill="#4c4c4c" id="svg_3" d="m178.375,287.812l-105.281,105.282l-41.094,-41.094c-17.688,0 -32,14.312 -32,32l0,96c0,17.688 14.312,32 32,32l96,0c17.688,0 32,-14.312 32,-32l-41.095,-41.062l105.281,-105.312l-45.811,-45.814zm301.625,-287.812l-96,0c-17.688,0 -32,14.328 -32,32l41.094,41.094l-105.282,105.281l45.812,45.812l105.281,-105.266l41.095,41.079c17.688,0 32,-14.312 32,-32l0,-96c0,-17.672 -14.312,-32 -32,-32zm0,352l-41.095,41.094l-105.28,-105.281l-45.812,45.812l105.281,105.312l-41.094,41.063c0,17.688 14.312,32 32,32l96,0c17.688,0 32,-14.312 32,-32l0,-96c0,-17.688 -14.312,-32 -32,-32zm-320,-320c0,-17.672 -14.312,-32 -32,-32l-96,0c-17.688,0 -32,14.328 -32,32l0,96c0,17.688 14.312,32 32,32l41.094,-41.078l105.281,105.266l45.812,-45.812l-105.281,-105.282l41.094,-41.094z"/>
 </g>
</svg>