<svg width="96.00000000000001" height="96.00000000000001" xmlns="http://www.w3.org/2000/svg">
 <title/>

 <g>
  <title>background</title>
  <rect fill="none" id="canvas_background" height="402" width="582" y="-1" x="-1"/>
 </g>
 <g>
  <title>Layer 1</title>
  <path fill="#4c4c4c" id="svg_2" d="m30,60l-24,0a6,6 0 0 0 0,12l18,0l0,18a6,6 0 0 0 12,0l0,-24a5.9966,5.9966 0 0 0 -6,-6z"/>
  <path fill="#4c4c4c" id="svg_3" d="m90,60l-24,0a5.9966,5.9966 0 0 0 -6,6l0,24a6,6 0 0 0 12,0l0,-18l18,0a6,6 0 0 0 0,-12z"/>
  <path fill="#4c4c4c" id="svg_4" d="m66,36l24,0a6,6 0 0 0 0,-12l-18,0l0,-18a6,6 0 0 0 -12,0l0,24a5.9966,5.9966 0 0 0 6,6z"/>
  <path fill="#4c4c4c" id="svg_5" d="m30,0a5.9966,5.9966 0 0 0 -6,6l0,18l-18,0a6,6 0 0 0 0,12l24,0a5.9966,5.9966 0 0 0 6,-6l0,-24a5.9966,5.9966 0 0 0 -6,-6z"/>
 </g>
</svg>